<?xml version="1.0" encoding="UTF-8"?><svg xmlns="http://www.w3.org/2000/svg" xmlns:xlink="http://www.w3.org/1999/xlink" viewBox="0 0 1000 1000" x="0px" y="0px" width="1000px" height="1000px" version="1.1"><defs><linearGradient id="linear-gradient" x1="488.674" y1="992.418" x2="488.674" y2="692.071" gradientUnits="userSpaceOnUse"><stop offset="0" stop-color="#7fd8e0" stop-opacity="0"/><stop offset="1" stop-color="#7fd8e0"/></linearGradient><linearGradient id="linear-gradient-2" x1="542.264" y1="594.193" x2="542.264" y2="348.89" xlink:href="#linear-gradient"/><linearGradient id="linear-gradient-3" x1="413.311" y1="631.695" x2="413.311" y2="479.689" xlink:href="#linear-gradient"/><linearGradient id="linear-gradient-4" x1="378.51" y1="613.395" x2="378.51" y2="434.077" xlink:href="#linear-gradient"/><linearGradient id="linear-gradient-5" x1="568" y1="588.821" x2="568" y2="330.256" xlink:href="#linear-gradient"/></defs><g style="isolation:isolate"><g id="Layer_1" data-name="Layer 1"><rect width="1000" height="1000" fill="#d2faff"/><circle cx="500" cy="500" r="308.672" fill="#fff" opacity="0.35"/><circle cx="500" cy="500" r="375.973" fill="#fff" opacity="0.15"/><circle cx="500" cy="500" r="308.672" fill="#fff" opacity="0.2"/><circle cx="500" cy="500" r="223.758" fill="#fff"/><path d="M852.346,697.479h0a21.272,21.272,0,0,0-21.272-21.272h-684.8A21.271,21.271,0,0,0,125,697.479h0a21.271,21.271,0,0,0,21.271,21.271H253.514a21.271,21.271,0,0,1,21.271,21.272h0a21.271,21.271,0,0,1-21.271,21.272H227.4a21.271,21.271,0,0,0-21.271,21.271h0A21.271,21.271,0,0,0,227.4,803.837H334.683a21.271,21.271,0,0,1,21.272,21.271h0a21.272,21.272,0,0,1-21.272,21.272H312.69a21.272,21.272,0,0,0-21.272,21.272h0a21.271,21.271,0,0,0,21.272,21.271H664.658a21.271,21.271,0,0,0,21.271-21.271h0a21.272,21.272,0,0,0-21.271-21.272H642.664a21.272,21.272,0,0,1-21.272-21.272h0a21.271,21.271,0,0,1,21.272-21.271H749.946a21.272,21.272,0,0,0,21.272-21.272h0a21.271,21.271,0,0,0-21.272-21.271H723.834a21.272,21.272,0,0,1-21.272-21.272h0a21.272,21.272,0,0,1,21.272-21.272h107.24A21.271,21.271,0,0,0,852.346,697.479Z" fill="url(#linear-gradient)"/><path d="M653.017,558.041a261.084,261.084,0,0,0,91.5-8.176c-4.617-7.372-5.538-29.5-1.88-36.368-8.616-.634-8.992-22.765-6.593-33.808-12.276-4.89-20.85-11.131-22.439-19.918-9.121-1.508-14.721-7.19-17.829-15.826-9.332,15.77-24.841,31.47-41.573,47.157Z" fill="#e04d2b"/><path d="M474.542,285.251v45.005C480.7,322.371,490.177,312.585,500,314c8.768,1.264,11.153,10.494,18.678,11.882,6.708,1.237,17.621-3.733,35.49-34.051-17.229,12.565-26.659,12.61-32.133,10.071-10.3-4.776-9.149-19.882-19.663-24.459C493.68,273.659,482.66,279.527,474.542,285.251Z" fill="#ef3f32"/><path d="M632.917,564.377S508.937,567,384.957,541.894c17.263-62.775,15.694-153.8,15.694-153.8C521.069,375.5,576.42,342.584,576.42,342.584S584.339,377.141,613,395c-4.856,25.844,3.5,43.682,19.917,64-14.511,14.511.813,42.73,8.083,50C625.983,524.017,622.533,553.993,632.917,564.377Z" fill="#e04d2b"/><path d="M475.774,555.972c61.5-16.833,78.394-53.313,78.394-109.143,0-26.73-10.918-64.626-23.106-85.328-28.9,9.6-72,20.487-130.411,26.6,0,0,1.569,91.023-15.694,153.8C415.871,548.154,446.783,552.689,475.774,555.972Z" fill="#fa923d" opacity="0.66"/><g opacity="0.3"><path d="M408.439,547.33a.984.984,0,0,1-.3-.047,1,1,0,0,1-.653-1.254c26.723-84.6,18.851-159.45,18.768-160.2a1,1,0,0,1,1.988-.221c.083.751,8.008,76-18.848,161.019A1,1,0,0,1,408.439,547.33Z" fill="#b22f22"/><path d="M429.89,550.865a.987.987,0,0,1-.3-.045,1,1,0,0,1-.659-1.251c25.655-82.673,23.232-167.914,23.2-168.766a1,1,0,1,1,2-.064c.027.854,2.46,86.433-23.294,169.423A1,1,0,0,1,429.89,550.865Z" fill="#b22f22"/><path d="M451.646,553.993a1.038,1.038,0,0,1-.279-.039,1,1,0,0,1-.682-1.239c10.615-36.642,17.35-82.819,21.132-115.105,4.1-34.994,5.7-61.649,5.72-61.914a1,1,0,1,1,2,.118c-.015.266-1.625,26.979-5.73,62.029-3.79,32.361-10.544,78.655-21.2,115.428A1,1,0,0,1,451.646,553.993Z" fill="#b22f22"/><path d="M472.947,556.647a.985.985,0,0,1-.323-.053,1,1,0,0,1-.624-1.27c11.412-33.425,19.877-82.342,24.969-117.492,5.519-38.105,8.373-68.681,8.4-68.986a1,1,0,0,1,1.992.185c-.113,1.219-11.544,122.723-33.468,186.94A1,1,0,0,1,472.947,556.647Z" fill="#b22f22"/><path d="M495.427,559.041a1,1,0,0,1-.943-1.334c20.217-57.1,39.042-194.955,39.23-196.34a1,1,0,1,1,1.982.268c-.188,1.388-19.041,139.442-39.326,196.74A1,1,0,0,1,495.427,559.041Z" fill="#b22f22"/><path d="M517.239,562.073a.977.977,0,0,1-.346-.062,1,1,0,0,1-.591-1.284c18.585-50.215,47.972-210.4,48.267-212.017a1,1,0,1,1,1.967.36c-.295,1.614-29.714,161.974-48.359,212.35A1,1,0,0,1,517.239,562.073Z" fill="#b22f22"/><path d="M540.148,562.073a.99.99,0,0,1-.364-.068,1,1,0,0,1-.567-1.3C556.167,517.4,586.99,370.952,587.3,369.478a1,1,0,0,1,1.957.411c-.31,1.475-31.167,148.081-48.177,191.549A1,1,0,0,1,540.148,562.073Z" fill="#b22f22"/><path d="M562.241,565.377a1,1,0,0,1-.922-1.388c15.319-36.424,50.363-167.922,50.714-169.246a1,1,0,0,1,1.934.514c-.353,1.326-35.433,132.958-50.8,169.508A1,1,0,0,1,562.241,565.377Z" fill="#b22f22"/><path d="M585.957,565.455a.985.985,0,0,1-.42-.093,1,1,0,0,1-.486-1.328c13.675-29.508,37.693-116.594,37.934-117.47a1,1,0,1,1,1.928.531c-.241.878-24.3,88.124-38.048,117.781A1,1,0,0,1,585.957,565.455Z" fill="#b22f22"/><path d="M609.866,565.455a1,1,0,0,1-.882-1.47c12.015-22.565,22.853-66.8,22.961-67.247a1,1,0,0,1,1.944.472c-.109.447-11.006,44.927-23.139,67.715A1,1,0,0,1,609.866,565.455Z" fill="#b22f22"/></g><path d="M623.337,567.444c-31.592,0-135.846-1.726-238.975-22.61a3,3,0,0,1-2.3-3.736c16.947-61.628,15.6-152.044,15.586-152.95a3,3,0,0,1,2.688-3.036c61.776-6.46,105.948-18.382,132.125-27.245,28.356-9.6,42.287-17.781,42.424-17.862a3,3,0,0,1,3.065,5.158c-2.265,1.348-56.458,32.916-174.278,45.629.079,15.45-.312,92.647-14.991,148.789,121.186,24.081,242.946,21.821,244.17,21.8a3,3,0,1,1,.126,6C632.78,567.381,629.389,567.444,623.337,567.444Z" fill="#5d1900"/><path d="M623.337,567.444c-31.592,0-135.846-1.726-238.975-22.61a3,3,0,0,1-2.3-3.736c16.947-61.628,15.6-152.044,15.586-152.95a3,3,0,0,1,2.688-3.036c61.776-6.46,105.948-18.382,132.125-27.245,28.356-9.6,42.287-17.781,42.424-17.862a3,3,0,0,1,4.456,1.91c.077.331,8.022,33.578,35.243,50.539a3,3,0,0,1,1.361,3.1c-4.783,25.457,3.839,42.428,19.3,61.56a3,3,0,0,1-.212,4.008c-6.854,6.854-5.618,17.233-3.373,24.733,2.653,8.868,7.883,17.451,11.456,21.024a3,3,0,0,1,0,4.242c-14.3,14.3-16.975,42.243-8.083,51.135a3,3,0,0,1-2.058,5.12C632.78,567.381,629.389,567.444,623.337,567.444ZM388.684,539.581C495,560.708,601.76,561.552,627.19,561.436c-6.906-13.614-2.7-38.133,9.755-52.481a66.8,66.8,0,0,1-11.029-21.379c-3.536-11.818-2.464-21.664,3.081-28.678-14.74-18.7-23.517-36.807-19.3-62.454-22.789-15.108-32.251-39.926-35.157-49.4-13.678,7.195-68.039,32.653-170.867,43.748C403.754,406.242,403.363,483.439,388.684,539.581Z" fill="#3a3736"/><path d="M399.729,434.349a1.5,1.5,0,0,1-.047-3c1.21-.038,122.089-4.234,212.8-37.757a1.5,1.5,0,0,1,1.04,2.814c-91.174,33.695-212.528,37.9-213.743,37.941Z" fill="#3a3736"/><line x1="472.947" y1="348.89" x2="611.582" y2="594.193" stroke="#3a3736" stroke-linecap="round" stroke-linejoin="round" fill="url(#linear-gradient-2)"/><line x1="467.059" y1="479.689" x2="359.563" y2="631.695" stroke="#3a3736" stroke-linecap="round" stroke-linejoin="round" fill="url(#linear-gradient-3)"/><line x1="469.563" y1="434.077" x2="287.458" y2="613.395" stroke="#3a3736" stroke-linecap="round" stroke-linejoin="round" fill="url(#linear-gradient-4)"/><line x1="474.542" y1="330.256" x2="661.458" y2="588.821" stroke="#3a3736" stroke-linecap="round" stroke-linejoin="round" fill="url(#linear-gradient-5)"/><path d="M422.779,643.321a3,3,0,0,1-2.624-4.449c24.882-45.156,41.337-121.892,47.585-221.91,4.733-75.77,1.944-138.786,1.915-139.414a3,3,0,1,1,5.994-.274c.029.63,2.832,63.918-1.918,140-6.39,102.369-22.648,177.9-48.321,224.493A3,3,0,0,1,422.779,643.321Z" fill="#3a3736"/><polygon points="600.528 610.613 381.251 613.395 412.387 598.895 569.034 596.908 600.528 610.613" fill="#fc3a4d"/><path d="M381.25,616.4a3,3,0,0,1-1.266-5.72l31.137-14.5a3,3,0,0,1,1.228-.28L569,593.907a2.966,2.966,0,0,1,1.235.249l31.5,13.706a3,3,0,0,1-1.16,5.751L381.289,616.4Zm31.819-14.51-17.891,8.333,191.346-2.428-18.1-7.876Z" fill="#3a3736"/><rect x="397.994" y="612.003" width="186.165" height="29.491" transform="translate(-7.911 6.28) rotate(-0.727)" fill="#f0fafc"/><path d="M398.188,645.673a3,3,0,0,1-3-2.962l-.375-29.488a3,3,0,0,1,2.962-3.038l186.151-2.362a3.1,3.1,0,0,1,2.133.852,3,3,0,0,1,.905,2.11l.374,29.488a3,3,0,0,1-2.962,3.039l-186.15,2.361Zm2.664-29.527.3,23.489L581.3,637.35l-.3-23.489Z" fill="#3a3736"/><path d="M476.018,644.346a3,3,0,0,1-3-2.962L472.8,623.9a3,3,0,0,1,2.962-3.038l30.339-.385a3.061,3.061,0,0,1,2.132.852,3.005,3.005,0,0,1,.906,2.11l.221,17.482a3,3,0,0,1-2.961,3.038l-30.339.385Zm2.816-17.52.146,11.482L503.318,638l-.145-11.481Z" fill="#3a3736"/><path d="M476.017,644.346a3,3,0,0,1-3-2.962L472.8,623.9a3,3,0,0,1,2.962-3.038l30.339-.385a3.061,3.061,0,0,1,2.132.852,3.005,3.005,0,0,1,.906,2.11l.221,17.482a3,3,0,1,1-6,.076l-.183-14.481-24.339.308.184,14.482a3,3,0,0,1-2.962,3.038Z" fill="#3a3736"/><rect x="475.906" y="623.671" width="30.341" height="17.483" transform="translate(-7.982 6.28) rotate(-0.727)" fill="#3a3736"/><polyline points="476.018 641.346 475.796 623.864 506.135 623.479 506.357 640.961" fill="#3a3736"/><path d="M424.3,644.942a3,3,0,0,1-3-2.962l-.222-17.481a3,3,0,0,1,2.962-3.038l30.339-.385a2.986,2.986,0,0,1,3.038,2.962l.222,17.482a3,3,0,0,1-2.962,3.038l-30.339.384Zm2.816-17.519.146,11.481L451.6,638.6l-.145-11.482Z" fill="#3a3736"/><path d="M424.3,644.942a3,3,0,0,1-3-2.962l-.222-17.481a3,3,0,0,1,2.962-3.038l30.339-.385a2.986,2.986,0,0,1,3.038,2.962l.222,17.482a3,3,0,0,1-2.962,3.038h-.039a3,3,0,0,1-3-2.962l-.183-14.482-24.34.309L427.3,641.9a3,3,0,0,1-2.962,3.038Z" fill="#3a3736"/><rect x="424.184" y="624.268" width="30.341" height="17.483" transform="translate(-7.994 5.624) rotate(-0.727)" fill="#3a3736"/><polyline points="424.296 641.943 424.074 624.461 454.413 624.076 454.635 641.558" fill="#3a3736"/><path d="M527.882,643.629a3,3,0,0,1-3-2.962l-.222-17.482a3,3,0,0,1,2.962-3.039l30.339-.384A3,3,0,0,1,561,622.724l.222,17.482a3,3,0,0,1-2.962,3.038l-30.339.385Zm2.816-17.521.146,11.483,24.339-.309-.146-11.482Z" fill="#3a3736"/><path d="M527.881,643.629a3,3,0,0,1-3-2.962l-.222-17.482a3,3,0,0,1,2.962-3.039l30.339-.384A3,3,0,0,1,561,622.724l.222,17.482a3,3,0,0,1-2.962,3.038h-.039a3,3,0,0,1-3-2.962l-.184-14.482-24.339.308.184,14.483a3,3,0,0,1-2.962,3.038Z" fill="#3a3736"/><rect x="527.77" y="622.953" width="30.341" height="17.483" transform="translate(-7.969 6.938) rotate(-0.727)" fill="#3a3736"/><polyline points="527.882 640.629 527.66 623.147 557.999 622.762 558.221 640.244" fill="#3a3736"/><path d="M436.246,471.654c-21.824,0-36.08-.271-36.547-.281a1.5,1.5,0,0,1,.061-3c1.549.03,155.85,2.962,232.892-10.851a1.5,1.5,0,1,1,.53,2.954C579.065,470.179,487.112,471.654,436.246,471.654Z" fill="#3a3736"/><path d="M581.142,514.344c-23.218,0-49.648-.76-74-1.872-37.446-1.712-109.614-6.3-114.727-11.411a1.5,1.5,0,0,1,2.115-2.129c3.255,2.765,49.534,7.67,113.28,10.567,52.834,2.4,115.456,3.152,132.765-1.938a1.5,1.5,0,1,1,.846,2.878C631.8,513.271,608.738,514.344,581.142,514.344Z" fill="#3a3736"/><path d="M713,625.245c4.851-20.847,8.374-41.282,15.445-60.868-31.208,17.975-49.749,22.115-77.227,25.986-13.435,1.893-26.68,3.155-39.636,3.83-12.016,18.253-22.132,31.982-93.3,42.138-57.418,8.195-165.743,8.772-246.075-28.162,19.975,50.309,58.72,83.108,98.785,91.831H613C613.106,663.531,665.92,633.028,713,625.245Z" fill="#28afaf"/><g opacity="0.46"><path d="M302.708,620.059a288.272,288.272,0,0,1-30.5-11.89c.212.534.438,1.055.655,1.585A313.406,313.406,0,0,0,302.708,620.059Z" fill="#1c918e"/><path d="M714.167,572.086c-4.819,16.189-6.746,27.873-10.694,44.842-47.08,7.784-101.038,43.3-101.141,79.769H360.322q-1.8-.393-3.6-.852A110.5,110.5,0,0,0,370.993,700H613c.1-36.469,52.917-66.972,100-74.755,4.851-20.847,8.374-41.282,15.445-60.868C723.382,567.293,718.656,569.84,714.167,572.086Z" fill="#1c918e" opacity="0.6"/></g><path d="M716.219,610.824c-97.253,22.185-163.1,26.606-209.862,30.137-3.613.591,15.91-5.2,11.926-4.63-57.418,8.195-165.743,8.772-246.075-28.162,19.975,50.309,58.72,83.108,98.785,91.831H613c.1-36.469,52.917-66.972,100-74.755,1.124-4.831,2.177-9.64,3.219-14.421Z" fill="#188c89" opacity="0.17" style="mix-blend-mode:multiply"/><path d="M613,702H370.993a2.036,2.036,0,0,1-.426-.046c-20.548-4.474-40.55-15.122-57.843-30.793-18.043-16.35-32.7-37.878-42.375-62.254a2,2,0,0,1,3.349-2.073c13.631,15.215,52.991,29.31,102.721,36.784a2,2,0,1,1-.595,3.955c-44.689-6.717-80.235-18.359-98.233-31.884A161.344,161.344,0,0,0,315.41,668.2c16.715,15.148,36.007,25.45,55.8,29.8H611.06c1.927-35.829,52.732-66.239,100.292-74.5.765-3.324,1.5-6.653,2.242-10.024C621.216,634.451,540.3,648.58,491.227,652.285A556.431,556.431,0,0,1,384.7,648.823a2,2,0,0,1,.523-3.965,552.45,552.45,0,0,0,105.731,3.437c48.678-3.676,132.734-18.413,224.824-39.422a2,2,0,0,1,2.4,2.376c-1.064,4.883-2.111,9.663-3.225,14.449a2,2,0,0,1-1.622,1.521c-23.943,3.958-48.294,13.542-66.806,26.294-9.78,6.736-17.462,14.025-22.833,21.666-5.739,8.163-8.661,16.515-8.684,24.827A2,2,0,0,1,613,702Z" fill="#3a3736"/><path d="M529.425,673.882c-87.09,5.576-169.523,3.761-229.227-18.6,20,23.635,45.121,39.125,70.8,44.715H613c.04-14.3,8.189-27.685,20.917-39.141A859.3,859.3,0,0,1,529.425,673.882Z" fill="#2d5b72" opacity="0.54"/><path d="M453.188,678.057c-17,0-33.5-.308-47.736-.936a2,2,0,0,1,.176-4c34.027,1.5,80.994,1.167,116.872-.833a2,2,0,0,1,.223,3.994C501.735,677.455,476.962,678.057,453.188,678.057Z" fill="#3a3736"/><path d="M531.193,675.767a2,2,0,0,1-.13-4c1.5-.1,3.113-.2,4.787-.306,4.5-.284,9.613-.607,13.646-.948a2,2,0,1,1,.338,3.986c-4.077.345-9.206.668-13.732.954-1.67.105-3.285.207-4.775.306C531.282,675.766,531.237,675.767,531.193,675.767Z" fill="#3a3736"/><path d="M613,702H370.993a2.036,2.036,0,0,1-.426-.046c-26.481-5.766-52.014-21.881-71.9-45.377a2,2,0,0,1,2.228-3.165c26.493,9.921,58.244,16.192,97.069,19.174a2,2,0,1,1-.307,3.988c-35.671-2.739-65.468-8.243-90.773-16.787,18.411,19.621,41,33.084,64.321,38.213H611.06c.62-11.565,6.342-23.179,16.7-33.969-22.5,4.061-45.794,7.264-69.35,9.535a2,2,0,1,1-.384-3.982c25.723-2.48,51.132-6.076,75.519-10.689a2,2,0,0,1,1.71,3.451c-13.215,11.894-20.219,24.917-20.255,37.66A2,2,0,0,1,613,702Z" fill="#3a3736"/><path d="M613,703H370.993a3.049,3.049,0,0,1-.639-.068c-20.719-4.512-40.879-15.242-58.3-31.03-18.156-16.453-32.9-38.108-42.632-62.626a3,3,0,0,1,4.041-3.833c82.278,37.828,192.337,35.349,244.4,27.918,71.019-10.135,79.932-23.675,91.217-40.818a3,3,0,0,1,2.35-1.347c13.022-.677,26.27-1.958,39.375-3.8,25.327-3.569,44.311-7.28,76.147-25.616a3,3,0,0,1,4.319,3.619c-5.244,14.523-8.469,29.327-11.884,45-1.106,5.073-2.248,10.318-3.461,15.529a3,3,0,0,1-2.433,2.28c-23.8,3.935-48.006,13.459-66.4,26.131-20,13.776-31.04,30-31.084,45.673A3,3,0,0,1,613,703Zm-241.685-6H610.124c1.306-16.725,13.109-33.52,33.559-47.605,18.585-12.8,42.842-22.5,66.842-26.769,1.039-4.533,2.032-9.086,3-13.508,2.882-13.232,5.632-25.852,9.583-38.316-28.76,15.6-47.305,19.128-71.466,22.532-12.772,1.8-25.677,3.067-38.388,3.773-13.123,19.7-25.867,32.393-94.543,42.194-51.259,7.316-158.119,9.863-240.795-25.328,9.313,20.824,22.411,39.2,38.17,53.483C332.639,682.46,351.732,692.672,371.318,697ZM713,625.245h0Z" fill="#3a3736"/><path d="M307.792,594.643h73.459c-9.064-9.064-10.346-21.95-4.729-30.188-11.648-6.406-14.006-25.042-8.249-30.8,0,0-7.884-2.135-13.712-10.83-9.571-14.28-4.432-31.724-4.432-31.724-29.307,1.225-36.466-17.009-36.466-17.009l-43.75,33.83S307.792,542.23,307.792,594.643Z" fill="#e04d2b"/><path d="M342.864,594.643a133.173,133.173,0,0,0,.961-16.011c0-45.872-23.126-83.5-52.557-87.222l-21.356,16.513s37.88,34.307,37.88,86.72Z" fill="#fa923d" opacity="0.66"/><g opacity="0.3"><path d="M328.93,595.643a1,1,0,0,1-1-.976c-1.236-50.583-47.972-93.5-48.444-93.926a1,1,0,1,1,1.343-1.482c.478.433,47.843,43.909,49.1,95.359a1,1,0,0,1-.975,1.025Z" fill="#b22f22"/><path d="M350.128,595.192a1,1,0,0,1-.986-.844C338.229,525,291.183,492.559,290.708,492.239a1,1,0,1,1,1.119-1.658c.481.325,48.244,33.262,59.29,103.456a1,1,0,0,1-.832,1.144A1.2,1.2,0,0,1,350.128,595.192Z" fill="#b22f22"/><path d="M368.271,595.643a1,1,0,0,1-.987-.854c-11.345-76.371-64.576-111.04-65.112-111.382a1,1,0,0,1,1.073-1.688c.136.087,13.812,8.879,28.689,27.093A175.8,175.8,0,0,1,369.262,594.5a1,1,0,0,1-.842,1.136A1.067,1.067,0,0,1,368.271,595.643Z" fill="#b22f22"/></g><path d="M381.251,597.643H307.792a3,3,0,0,1-3-3c0-50.5-36.524-84.163-36.893-84.5a3,3,0,0,1,.179-4.6l43.75-33.83A3,3,0,0,1,316.456,473c.263.645,6.954,16.226,33.548,15.107a3,3,0,0,1,3,3.845c-.046.157-4.6,16.313,4.046,29.207a24.173,24.173,0,0,0,12.02,9.609,3.007,3.007,0,0,1,1.321,5.012c-1.79,1.79-2.552,6.08-1.9,10.676.758,5.331,3.645,12.169,9.472,15.373a3,3,0,0,1,1.033,4.32c-5.085,7.458-3.206,18.8,4.372,26.375a3,3,0,0,1-2.121,5.122Zm-70.459-3h0Zm-.04-3H374.99c-5.309-8.213-6.343-18.332-2.483-26.233-5.229-3.98-8.874-10.535-9.952-18.111a22.766,22.766,0,0,1,1.251-12.258A31.4,31.4,0,0,1,352.069,524.5c-7.525-11.227-6.712-24.037-5.664-30.341-20.713-.278-30.084-10.158-33.666-15.555l-38.262,29.586C283,516.9,309.587,547.531,310.752,591.643Z" fill="#3a3736"/><path d="M697.985,558.1a67.651,67.651,0,0,0,9.54-35.054c0-24.419-12.334-45.46-30.113-55.114-7.05,7.73-14.981,15.451-23.212,23.168l-1.183,66.939A256.491,256.491,0,0,0,697.985,558.1Z" fill="#fa923d" opacity="0.66"/><g opacity="0.3"><path d="M664.47,559.7a.981.981,0,0,1-.3-.045,1,1,0,0,1-.659-1.251c6.136-19.827-2.951-73.491-3.042-74.03a1,1,0,1,1,1.97-.338c.381,2.223,9.259,54.679,2.982,74.96A1,1,0,0,1,664.47,559.7Z" fill="#b22f22"/><path d="M728.444,553.993a1,1,0,0,1-.993-.889c-6.8-60.556-41.852-94.038-42.206-94.369a1,1,0,0,1,1.367-1.46c.359.336,35.939,34.283,42.827,95.607a1,1,0,0,1-.882,1.105A1.084,1.084,0,0,1,728.444,553.993Z" fill="#b22f22"/><path d="M685.929,560.062a1,1,0,0,1-1-1c0-47.591-16.949-81.2-17.119-81.535a1,1,0,1,1,1.779-.913c.174.338,17.34,34.348,17.34,82.448A1,1,0,0,1,685.929,560.062Z" fill="#b22f22"/><path d="M708.871,557.935a1,1,0,0,1-.992-.88c-5.732-47.342-31.059-88.182-31.315-88.59a1,1,0,0,1,1.7-1.062c.257.41,25.818,41.614,31.605,89.411a1,1,0,0,1-.994,1.121Z" fill="#b22f22"/></g><path d="M675.731,560.553q-11.452,0-22.848-1.018a1.5,1.5,0,0,1-1.366-1.52l1.183-66.94a1.509,1.509,0,0,1,.474-1.068c15.863-14.871,31.847-30.837,41.308-46.826a1.5,1.5,0,0,1,2.7.257c3.115,8.656,8.565,13.514,16.663,14.853a1.5,1.5,0,0,1,1.23,1.213c1.341,7.411,8.379,13.558,21.518,18.791a1.5,1.5,0,0,1,.911,1.712c-1.9,8.762-1.957,24.466,2.28,30.136A4.047,4.047,0,0,0,742.745,512a1.5,1.5,0,0,1,1.214,2.2c-3.524,6.616-2.4,28.123,1.826,34.868a1.5,1.5,0,0,1-.883,2.245A266.808,266.808,0,0,1,675.731,560.553Zm-21.19-3.886a260.674,260.674,0,0,0,87.771-7.771c-3.711-8.265-4.624-26.185-1.75-34.365a7.632,7.632,0,0,1-3.178-2.593c-4.782-6.4-4.846-21.813-3.06-31.327-12.877-5.327-20.086-11.736-21.98-19.547-7.7-1.568-13.345-6.2-16.84-13.808-9.676,15.287-24.777,30.389-39.816,44.506Z" fill="#3a3736"/><path d="M653.8,503a1.5,1.5,0,0,1-.737-2.807c27.252-15.367,45.049-27.782,59.507-41.513a1.5,1.5,0,1,1,2.067,2.174c-14.648,13.911-32.621,26.457-60.1,41.953A1.5,1.5,0,0,1,653.8,503Z" fill="#3a3736"/><path d="M710.219,703h-2.7a3,3,0,1,1,0-6h2.7a3,3,0,0,1,0,6Z" fill="#3a3736"/><path d="M691.267,703h-22.58a3,3,0,1,1,0-6h22.58a3,3,0,0,1,0,6Z" fill="#3a3736"/><path d="M651.218,703H273.479a3,3,0,0,1,0-6H651.218a3,3,0,0,1,0,6Z" fill="#3a3736"/><path d="M252.031,703H239.909a3,3,0,0,1,0-6h12.122a3,3,0,0,1,0,6Z" fill="#3a3736"/><g opacity="0.48" style="mix-blend-mode:multiply"><path d="M614.343,718.469h-21.6a3,3,0,0,1,0-6h21.6a3,3,0,0,1,0,6Z" fill="#298589"/><path d="M578.126,718.469H541.4a3,3,0,0,1,0-6h36.73a3,3,0,0,1,0,6Z" fill="#298589"/></g><g style="mix-blend-mode:overlay"><path d="M495.868,746.465H488.2a3,3,0,1,1,0-6h7.666a3,3,0,1,1,0,6Z" fill="#3a3736"/><path d="M475.719,746.465h-24a3,3,0,0,1,0-6h24a3,3,0,0,1,0,6Z" fill="#3a3736"/></g><path d="M319.1,627.982a3.049,3.049,0,0,1-.526-.046,3,3,0,0,1-2.431-3.477c12.9-72.94-37.262-142.3-37.77-142.994a3,3,0,1,1,4.834-3.553c.536.728,13.241,18.143,24.488,45.1,10.408,24.944,21.347,62.974,14.356,102.493A3,3,0,0,1,319.1,627.982Z" fill="#3a3736"/><path d="M285.127,527.49a1.5,1.5,0,0,1-.71-2.821l65-34.889a1.5,1.5,0,0,1,1.419,2.643l-65,34.889A1.49,1.49,0,0,1,285.127,527.49Z" fill="#3a3736"/><path d="M298.4,551.365a1.5,1.5,0,0,1-.337-2.961L367.934,532.2a1.5,1.5,0,0,1,.678,2.922l-69.873,16.209A1.475,1.475,0,0,1,298.4,551.365Z" fill="#3a3736"/><path d="M306.866,575.389a1.5,1.5,0,0,1-.172-2.991l68.8-8.037a1.5,1.5,0,0,1,.347,2.981l-68.8,8.037A1.508,1.508,0,0,1,306.866,575.389Z" fill="#3a3736"/><g opacity="0.62"><path d="M484.785,718.469h-3.358a3,3,0,0,1,0-6h3.358a3,3,0,1,1,0,6Z" fill="#3a3736"/><path d="M468.984,718.469H454.635a3,3,0,0,1,0-6h14.349a3,3,0,0,1,0,6Z" fill="#3a3736"/><path d="M439.355,718.469H359.563a3,3,0,0,1,0-6h79.792a3,3,0,0,1,0,6Z" fill="#3a3736"/><path d="M346.942,718.469H343.8a3,3,0,0,1,0-6h3.14a3,3,0,0,1,0,6Z" fill="#3a3736"/></g><g style="mix-blend-mode:overlay"><path d="M650.974,757.794H579.106a3,3,0,0,1,0-6h71.868a3,3,0,0,1,0,6Z" fill="#3a3736"/></g><g style="mix-blend-mode:overlay"><path d="M566.718,757.794H554.329a3,3,0,0,1,0-6h12.389a3,3,0,0,1,0,6Z" fill="#3a3736"/></g><g style="mix-blend-mode:overlay"><path d="M539.664,757.794H534.52a3,3,0,0,1,0-6h5.144a3,3,0,0,1,0,6Z" fill="#3a3736"/></g><g opacity="0.59"><g style="mix-blend-mode:overlay"><path d="M480.005,772.845H467.581a3,3,0,1,1,0-6h12.424a3,3,0,0,1,0,6Z" fill="#3a3736"/></g><g style="mix-blend-mode:overlay"><path d="M455.173,772.845H393.914a3,3,0,0,1,0-6h61.259a3,3,0,0,1,0,6Z" fill="#3a3736"/></g></g><g opacity="0.59"><g style="mix-blend-mode:overlay"><path d="M574.241,811.374H561.816a3,3,0,0,1,0-6h12.425a3,3,0,0,1,0,6Z" fill="#3a3736"/></g><g style="mix-blend-mode:overlay"><path d="M549.409,811.374H520.038a3,3,0,0,1,0-6h29.371a3,3,0,0,1,0,6Z" fill="#3a3736"/></g></g><g opacity="0.59"><g style="mix-blend-mode:overlay"><path d="M454.35,811.374h-6.733a3,3,0,1,1,0-6h6.733a3,3,0,1,1,0,6Z" fill="#3a3736"/></g><g style="mix-blend-mode:overlay"><path d="M436.959,811.374H421.045a3,3,0,0,1,0-6h15.914a3,3,0,1,1,0,6Z" fill="#3a3736"/></g></g><g opacity="0.33"><g style="mix-blend-mode:overlay"><path d="M506.356,849.908H482.285a3,3,0,1,1,0-6h24.071a3,3,0,1,1,0,6Z" fill="#3a3736"/></g><g style="mix-blend-mode:overlay"><path d="M458.246,849.908h-56.9a3,3,0,0,1,0-6h56.9a3,3,0,0,1,0,6Z" fill="#3a3736"/></g></g><path d="M685.927,602.545a1.5,1.5,0,0,1-.222-2.983,87.218,87.218,0,0,0,22.533-6.729,1.5,1.5,0,0,1,1.268,2.719,90.445,90.445,0,0,1-23.354,6.976A1.429,1.429,0,0,1,685.927,602.545Z" fill="#3a3736"/><path d="M621.391,612.323a1.5,1.5,0,0,1-.108-3c.3-.021,30.01-2.236,54.184-7.361a1.5,1.5,0,0,1,.623,2.935c-24.378,5.167-54.288,7.4-54.588,7.418C621.465,612.322,621.428,612.323,621.391,612.323Z" fill="#3a3736"/><path d="M653.8,543.261a1.5,1.5,0,0,1,0-3c33.9,0,69.2-11.2,87.837-27.883a1.5,1.5,0,1,1,2,2.236C724.487,531.748,688.384,543.261,653.8,543.261Z" fill="#3a3736"/><path d="M653.016,526.344a1.5,1.5,0,0,1-.376-2.952c28.931-7.5,56.661-22.588,82.421-44.839a1.5,1.5,0,0,1,1.96,2.271c-26.111,22.554-54.248,37.853-83.627,45.472A1.542,1.542,0,0,1,653.016,526.344Z" fill="#3a3736"/><path d="M669.471,590.394a3,3,0,0,1-2.992-2.815c-3.305-53.39,5.07-124.923,5.155-125.64a3,3,0,0,1,5.959.707c-.085.711-8.4,71.719-5.125,124.562a3,3,0,0,1-2.809,3.18C669.6,590.392,669.533,590.394,669.471,590.394Z" fill="#3a3736"/></g></g></svg>